# xmcd
#
# Track frame offsets:
#	150
#	18334
#	46691
#	66090
#	89066
#	115093
#	139605
#	161345
#	185725
#	218495
#
# Disc length: 3645 seconds
#
# Revision: 0
# Processed by: cddbd v1.5.2PL0 Copyright (c) Steve Scherf et al.
# Submitted via: EasyCDDAExtractor 2010.4.0.0
#
DISCID=800e3b0a
DTITLE=Blindside Blues Band - Smokehouse Sessions Volume Two
DYEAR=2011
DGENRE=Blues
TTITLE0=Evil
TTITLE1=Mojo Highway
TTITLE2=King of the Sky
TTITLE3=I Ain't Superstitious
TTITLE4=Working So Hard
TTITLE5=Smokehouse Shuffle
TTITLE6=Whiskey Man
TTITLE7=Bad Woman Blues
TTITLE8=Hear My Train A Comin'
TTITLE9=To the Station (unplugged) with bonus track
EXTD=
EXTT0=
EXTT1=
EXTT2=
EXTT3=
EXTT4=
EXTT5=
EXTT6=
EXTT7=
EXTT8=
EXTT9=
PLAYORDER=
